<svg width="258" height="74" viewBox="0 0 258 74" fill="none" xmlns="http://www.w3.org/2000/svg">
<rect width="258" height="74" fill="white"/>
<path d="M115.35 48.66V54H114.23V52.39H112.82L111.73 54H110.39L111.65 52.22C111.263 52.0867 110.967 51.8833 110.76 51.61C110.56 51.33 110.46 50.9867 110.46 50.58C110.46 49.9667 110.677 49.4933 111.11 49.16C111.543 48.8267 112.14 48.66 112.9 48.66H115.35ZM112.94 49.71C112.133 49.71 111.73 50.0133 111.73 50.62C111.73 51.22 112.12 51.52 112.9 51.52H114.23V49.71H112.94ZM121.153 51.22C121.486 51.3133 121.743 51.4667 121.923 51.68C122.11 51.8867 122.203 52.1367 122.203 52.43C122.203 52.7567 122.093 53.0467 121.873 53.3C121.653 53.5467 121.35 53.74 120.963 53.88C120.576 54.02 120.136 54.09 119.643 54.09C119.23 54.09 118.826 54.0433 118.433 53.95C118.04 53.85 117.683 53.71 117.363 53.53L117.723 52.6C117.983 52.7467 118.276 52.86 118.603 52.94C118.93 53.02 119.256 53.06 119.583 53.06C120.003 53.06 120.33 52.9967 120.563 52.87C120.803 52.7367 120.923 52.5567 120.923 52.33C120.923 52.1233 120.83 51.9633 120.643 51.85C120.463 51.7367 120.206 51.68 119.873 51.68H118.833V50.84H119.773C120.086 50.84 120.33 50.7867 120.503 50.68C120.683 50.5733 120.773 50.4233 120.773 50.23C120.773 50.0367 120.666 49.8833 120.453 49.77C120.24 49.6567 119.946 49.6 119.573 49.6C119.04 49.6 118.476 49.73 117.883 49.99L117.563 49.07C118.263 48.7433 118.97 48.58 119.683 48.58C120.136 48.58 120.543 48.6433 120.903 48.77C121.263 48.89 121.543 49.0633 121.743 49.29C121.95 49.51 122.053 49.7633 122.053 50.05C122.053 50.31 121.973 50.5433 121.813 50.75C121.653 50.95 121.433 51.1067 121.153 51.22ZM127.1 50.42C127.78 50.42 128.3 50.5733 128.66 50.88C129.02 51.1867 129.2 51.62 129.2 52.18C129.2 52.7667 129 53.22 128.6 53.54C128.207 53.86 127.647 54.0167 126.92 54.01L124.5 54V48.66H125.75V50.41L127.1 50.42ZM129.89 48.66H131.14V54H129.89V48.66ZM126.81 53.09C127.177 53.0967 127.457 53.02 127.65 52.86C127.843 52.7 127.94 52.4667 127.94 52.16C127.94 51.86 127.847 51.64 127.66 51.5C127.473 51.36 127.19 51.2867 126.81 51.28L125.75 51.27V53.08L126.81 53.09ZM136.04 51.86H135.07V54H133.82V48.66H135.07V50.82H136.07L137.65 48.66H138.99L137.05 51.23L139.12 54H137.65L136.04 51.86ZM141.002 48.66H142.252V52.18L145.202 48.66H146.342V54H145.092V50.48L142.152 54H141.002V48.66ZM152.497 50.7H155.247V51.74H152.497V50.7ZM163.059 48.58C163.619 48.58 164.122 48.7 164.569 48.94C165.015 49.1733 165.365 49.5 165.619 49.92C165.872 50.3333 165.999 50.8033 165.999 51.33C165.999 51.8567 165.872 52.33 165.619 52.75C165.365 53.17 165.015 53.5 164.569 53.74C164.122 53.9733 163.619 54.09 163.059 54.09C162.572 54.09 162.132 54.01 161.739 53.85C161.345 53.69 161.012 53.46 160.739 53.16L161.459 52.46C161.879 52.88 162.395 53.09 163.009 53.09C163.462 53.09 163.849 52.97 164.169 52.73C164.495 52.4833 164.705 52.1567 164.799 51.75H162.329V50.85H164.789C164.689 50.4567 164.479 50.1467 164.159 49.92C163.839 49.6867 163.455 49.57 163.009 49.57C162.395 49.57 161.879 49.7833 161.459 50.21L160.739 49.51C161.005 49.2033 161.335 48.9733 161.729 48.82C162.129 48.66 162.572 48.58 163.059 48.58ZM172.244 49.72H170.374V54H169.124V49.72H167.244V48.66H172.244V49.72ZM176.296 54.07C175.756 54.07 175.27 53.9533 174.836 53.72C174.403 53.4867 174.063 53.1633 173.816 52.75C173.576 52.33 173.456 51.8567 173.456 51.33C173.456 50.8033 173.576 50.3333 173.816 49.92C174.063 49.5067 174.403 49.1833 174.836 48.95C175.27 48.7167 175.756 48.6 176.296 48.6C176.843 48.6 177.333 48.7167 177.766 48.95C178.2 49.1833 178.536 49.5067 178.776 49.92C179.023 50.3333 179.146 50.8033 179.146 51.33C179.146 51.8567 179.023 52.33 178.776 52.75C178.536 53.1633 178.2 53.4867 177.766 53.72C177.333 53.9533 176.843 54.07 176.296 54.07ZM176.296 53C176.756 53 177.136 52.8467 177.436 52.54C177.736 52.2333 177.886 51.83 177.886 51.33C177.886 50.83 177.736 50.4267 177.436 50.12C177.136 49.8133 176.756 49.66 176.296 49.66C175.836 49.66 175.456 49.8133 175.156 50.12C174.863 50.4267 174.716 50.83 174.716 51.33C174.716 51.83 174.863 52.2333 175.156 52.54C175.456 52.8467 175.836 53 176.296 53ZM190.265 48.66V54H189.025V49.72H186.395V54H185.145V48.66H190.265ZM195.911 48.6C196.431 48.6 196.895 48.7133 197.301 48.94C197.715 49.1667 198.038 49.4867 198.271 49.9C198.505 50.3133 198.621 50.79 198.621 51.33C198.621 51.87 198.505 52.35 198.271 52.77C198.038 53.1833 197.715 53.5033 197.301 53.73C196.895 53.9567 196.431 54.07 195.911 54.07C195.191 54.07 194.621 53.83 194.201 53.35V55.94H192.951V48.66H194.141V49.36C194.348 49.1067 194.601 48.9167 194.901 48.79C195.208 48.6633 195.545 48.6 195.911 48.6ZM195.771 53C196.231 53 196.608 52.8467 196.901 52.54C197.201 52.2333 197.351 51.83 197.351 51.33C197.351 50.83 197.201 50.4267 196.901 50.12C196.608 49.8133 196.231 49.66 195.771 49.66C195.471 49.66 195.201 49.73 194.961 49.87C194.721 50.0033 194.531 50.1967 194.391 50.45C194.251 50.7033 194.181 50.9967 194.181 51.33C194.181 51.6633 194.251 51.9567 194.391 52.21C194.531 52.4633 194.721 52.66 194.961 52.8C195.201 52.9333 195.471 53 195.771 53ZM203.245 54.07C202.705 54.07 202.219 53.9533 201.785 53.72C201.352 53.4867 201.012 53.1633 200.765 52.75C200.525 52.33 200.405 51.8567 200.405 51.33C200.405 50.8033 200.525 50.3333 200.765 49.92C201.012 49.5067 201.352 49.1833 201.785 48.95C202.219 48.7167 202.705 48.6 203.245 48.6C203.792 48.6 204.282 48.7167 204.715 48.95C205.149 49.1833 205.485 49.5067 205.725 49.92C205.972 50.3333 206.095 50.8033 206.095 51.33C206.095 51.8567 205.972 52.33 205.725 52.75C205.485 53.1633 205.149 53.4867 204.715 53.72C204.282 53.9533 203.792 54.07 203.245 54.07ZM203.245 53C203.705 53 204.085 52.8467 204.385 52.54C204.685 52.2333 204.835 51.83 204.835 51.33C204.835 50.83 204.685 50.4267 204.385 50.12C204.085 49.8133 203.705 49.66 203.245 49.66C202.785 49.66 202.405 49.8133 202.105 50.12C201.812 50.4267 201.665 50.83 201.665 51.33C201.665 51.83 201.812 52.2333 202.105 52.54C202.405 52.8467 202.785 53 203.245 53ZM210.76 54.07C210.207 54.07 209.71 53.9533 209.27 53.72C208.83 53.4867 208.487 53.1633 208.24 52.75C207.994 52.33 207.87 51.8567 207.87 51.33C207.87 50.8033 207.994 50.3333 208.24 49.92C208.487 49.5067 208.827 49.1833 209.26 48.95C209.7 48.7167 210.2 48.6 210.76 48.6C211.287 48.6 211.747 48.7067 212.14 48.92C212.54 49.1333 212.84 49.44 213.04 49.84L212.08 50.4C211.927 50.1533 211.734 49.97 211.5 49.85C211.274 49.7233 211.024 49.66 210.75 49.66C210.284 49.66 209.897 49.8133 209.59 50.12C209.284 50.42 209.13 50.8233 209.13 51.33C209.13 51.8367 209.28 52.2433 209.58 52.55C209.887 52.85 210.277 53 210.75 53C211.024 53 211.274 52.94 211.5 52.82C211.734 52.6933 211.927 52.5067 212.08 52.26L213.04 52.82C212.834 53.22 212.53 53.53 212.13 53.75C211.737 53.9633 211.28 54.07 210.76 54.07ZM219.322 49.72H217.452V54H216.202V49.72H214.322V48.66H219.322V49.72ZM223.374 54.07C222.834 54.07 222.348 53.9533 221.914 53.72C221.481 53.4867 221.141 53.1633 220.894 52.75C220.654 52.33 220.534 51.8567 220.534 51.33C220.534 50.8033 220.654 50.3333 220.894 49.92C221.141 49.5067 221.481 49.1833 221.914 48.95C222.348 48.7167 222.834 48.6 223.374 48.6C223.921 48.6 224.411 48.7167 224.844 48.95C225.278 49.1833 225.614 49.5067 225.854 49.92C226.101 50.3333 226.224 50.8033 226.224 51.33C226.224 51.8567 226.101 52.33 225.854 52.75C225.614 53.1633 225.278 53.4867 224.844 53.72C224.411 53.9533 223.921 54.07 223.374 54.07ZM223.374 53C223.834 53 224.214 52.8467 224.514 52.54C224.814 52.2333 224.964 51.83 224.964 51.33C224.964 50.83 224.814 50.4267 224.514 50.12C224.214 49.8133 223.834 49.66 223.374 49.66C222.914 49.66 222.534 49.8133 222.234 50.12C221.941 50.4267 221.794 50.83 221.794 51.33C221.794 51.83 221.941 52.2333 222.234 52.54C222.534 52.8467 222.914 53 223.374 53Z" fill="#4D4D4D"/>
<path d="M134.574 22.6L129.47 38H126.434L122.628 26.604L118.756 38H115.698L110.594 22.6H113.564L117.392 34.304L121.374 22.6H124.014L127.908 34.37L131.846 22.6H134.574ZM136.747 26.252H139.497V38H136.747V26.252ZM138.133 24.316C137.635 24.316 137.217 24.162 136.879 23.854C136.542 23.5313 136.373 23.1353 136.373 22.666C136.373 22.1967 136.542 21.808 136.879 21.5C137.217 21.1773 137.635 21.016 138.133 21.016C138.632 21.016 139.05 21.17 139.387 21.478C139.725 21.7713 139.893 22.1453 139.893 22.6C139.893 23.084 139.725 23.4947 139.387 23.832C139.065 24.1547 138.647 24.316 138.133 24.316ZM149.773 26.12C151.254 26.12 152.442 26.5527 153.337 27.418C154.231 28.2833 154.679 29.5667 154.679 31.268V38H151.929V31.62C151.929 30.5933 151.687 29.8233 151.203 29.31C150.719 28.782 150.029 28.518 149.135 28.518C148.123 28.518 147.323 28.826 146.737 29.442C146.15 30.0433 145.857 30.916 145.857 32.06V38H143.107V26.252H145.725V27.77C146.179 27.2273 146.751 26.8167 147.441 26.538C148.13 26.2593 148.907 26.12 149.773 26.12ZM158.431 22.6H161.291V35.58H169.343V38H158.431V22.6ZM171.337 26.252H174.087V38H171.337V26.252ZM172.723 24.316C172.225 24.316 171.807 24.162 171.469 23.854C171.132 23.5313 170.963 23.1353 170.963 22.666C170.963 22.1967 171.132 21.808 171.469 21.5C171.807 21.1773 172.225 21.016 172.723 21.016C173.222 21.016 173.64 21.17 173.977 21.478C174.315 21.7713 174.483 22.1453 174.483 22.6C174.483 23.084 174.315 23.4947 173.977 23.832C173.655 24.1547 173.237 24.316 172.723 24.316ZM184.363 26.12C185.844 26.12 187.032 26.5527 187.927 27.418C188.821 28.2833 189.269 29.5667 189.269 31.268V38H186.519V31.62C186.519 30.5933 186.277 29.8233 185.793 29.31C185.309 28.782 184.619 28.518 183.725 28.518C182.713 28.518 181.913 28.826 181.327 29.442C180.74 30.0433 180.447 30.916 180.447 32.06V38H177.697V26.252H180.315V27.77C180.769 27.2273 181.341 26.8167 182.031 26.538C182.72 26.2593 183.497 26.12 184.363 26.12ZM204.525 26.252V36.218C204.525 40.354 202.413 42.422 198.189 42.422C197.059 42.422 195.989 42.2753 194.977 41.982C193.965 41.7033 193.129 41.2927 192.469 40.75L193.701 38.682C194.214 39.1073 194.859 39.4447 195.637 39.694C196.429 39.958 197.228 40.09 198.035 40.09C199.325 40.09 200.271 39.7967 200.873 39.21C201.474 38.6233 201.775 37.7287 201.775 36.526V35.91C201.305 36.4233 200.733 36.812 200.059 37.076C199.384 37.34 198.643 37.472 197.837 37.472C196.722 37.472 195.71 37.2373 194.801 36.768C193.906 36.284 193.195 35.6093 192.667 34.744C192.153 33.8787 191.897 32.8887 191.897 31.774C191.897 30.6593 192.153 29.6767 192.667 28.826C193.195 27.9607 193.906 27.2933 194.801 26.824C195.71 26.3547 196.722 26.12 197.837 26.12C198.687 26.12 199.457 26.2593 200.147 26.538C200.851 26.8167 201.437 27.242 201.907 27.814V26.252H204.525ZM198.255 35.14C199.296 35.14 200.147 34.832 200.807 34.216C201.481 33.5853 201.819 32.7713 201.819 31.774C201.819 30.7913 201.481 29.992 200.807 29.376C200.147 28.76 199.296 28.452 198.255 28.452C197.199 28.452 196.333 28.76 195.659 29.376C194.999 29.992 194.669 30.7913 194.669 31.774C194.669 32.7713 194.999 33.5853 195.659 34.216C196.333 34.832 197.199 35.14 198.255 35.14ZM213.42 38.154C212.232 38.154 211.161 37.8973 210.208 37.384C209.255 36.8707 208.507 36.1593 207.964 35.25C207.436 34.326 207.172 33.2847 207.172 32.126C207.172 30.9673 207.436 29.9333 207.964 29.024C208.507 28.1147 209.255 27.4033 210.208 26.89C211.161 26.3767 212.232 26.12 213.42 26.12C214.623 26.12 215.701 26.3767 216.654 26.89C217.607 27.4033 218.348 28.1147 218.876 29.024C219.419 29.9333 219.69 30.9673 219.69 32.126C219.69 33.2847 219.419 34.326 218.876 35.25C218.348 36.1593 217.607 36.8707 216.654 37.384C215.701 37.8973 214.623 38.154 213.42 38.154ZM213.42 35.8C214.432 35.8 215.268 35.4627 215.928 34.788C216.588 34.1133 216.918 33.226 216.918 32.126C216.918 31.026 216.588 30.1387 215.928 29.464C215.268 28.7893 214.432 28.452 213.42 28.452C212.408 28.452 211.572 28.7893 210.912 29.464C210.267 30.1387 209.944 31.026 209.944 32.126C209.944 33.226 210.267 34.1133 210.912 34.788C211.572 35.4627 212.408 35.8 213.42 35.8Z" fill="#4D4D4D"/>
<line x1="100.8" y1="8" x2="100.8" y2="66" stroke="#4D4D4D" stroke-width="1.6"/>
<g filter="url(#filter0_d)">
<path d="M77.861 25.9L70.205 49H65.651L59.942 31.906L54.134 49H49.547L41.891 25.9H46.346L52.088 43.456L58.061 25.9H62.021L67.862 43.555L73.769 25.9H77.861Z" fill="#FFAE78"/>
<path d="M77.861 25.9L84.5056 28.1022C85.2128 25.9684 84.8522 23.6247 83.5362 21.8022C82.2202 19.9796 80.109 18.9 77.861 18.9V25.9ZM70.205 49V56C73.2224 56 75.9003 54.0664 76.8496 51.2022L70.205 49ZM65.651 49L59.0115 51.2174C59.9655 54.0739 62.6395 56 65.651 56V49ZM59.942 31.906L66.5815 29.6886C65.6296 26.8385 62.965 24.9138 59.9602 24.906C56.9554 24.8982 54.2808 26.809 53.3141 29.6541L59.942 31.906ZM54.134 49V56C57.1321 56 59.7974 54.0907 60.7619 51.2519L54.134 49ZM49.547 49L42.9024 51.2022C43.8517 54.0664 46.5296 56 49.547 56V49ZM41.891 25.9V18.9C39.643 18.9 37.5318 19.9796 36.2158 21.8022C34.8998 23.6247 34.5392 25.9684 35.2464 28.1022L41.891 25.9ZM46.346 25.9L52.9992 23.724C52.058 20.8464 49.3736 18.9 46.346 18.9V25.9ZM52.088 43.456L45.4348 45.632C46.3712 48.4951 49.0343 50.438 52.0466 50.4559C55.0588 50.4737 57.7447 48.5624 58.715 45.7107L52.088 43.456ZM58.061 25.9V18.9C55.0639 18.9 52.3994 20.808 51.434 23.6453L58.061 25.9ZM62.021 25.9L68.6667 23.7013C67.7185 20.8353 65.0398 18.9 62.021 18.9V25.9ZM67.862 43.555L61.2163 45.7537C62.1631 48.6156 64.8358 50.5499 67.8502 50.555C70.8647 50.5601 73.5438 48.6347 74.5003 45.776L67.862 43.555ZM73.769 25.9V18.9C70.7589 18.9 68.0858 20.8244 67.1307 23.679L73.769 25.9ZM71.2164 23.6978L63.5604 46.7978L76.8496 51.2022L84.5056 28.1022L71.2164 23.6978ZM70.205 42H65.651V56H70.205V42ZM72.2905 46.7826L66.5815 29.6886L53.3025 34.1234L59.0115 51.2174L72.2905 46.7826ZM53.3141 29.6541L47.5061 46.7481L60.7619 51.2519L66.5699 34.1579L53.3141 29.6541ZM54.134 42H49.547V56H54.134V42ZM56.1916 46.7978L48.5356 23.6978L35.2464 28.1022L42.9024 51.2022L56.1916 46.7978ZM41.891 32.9H46.346V18.9H41.891V32.9ZM39.6928 28.076L45.4348 45.632L58.7412 41.28L52.9992 23.724L39.6928 28.076ZM58.715 45.7107L64.688 28.1547L51.434 23.6453L45.461 41.2013L58.715 45.7107ZM58.061 32.9H62.021V18.9H58.061V32.9ZM55.3753 28.0987L61.2163 45.7537L74.5077 41.3563L68.6667 23.7013L55.3753 28.0987ZM74.5003 45.776L80.4073 28.121L67.1307 23.679L61.2237 41.334L74.5003 45.776ZM73.769 32.9H77.861V18.9H73.769V32.9Z" fill="#FF4949"/>
</g>
<defs>
<filter id="filter0_d" x="34.891" y="18.9" width="53.4701" height="40.6" filterUnits="userSpaceOnUse" color-interpolation-filters="sRGB">
<feFlood flood-opacity="0" result="BackgroundImageFix"/>
<feColorMatrix in="SourceAlpha" type="matrix" values="0 0 0 0 0 0 0 0 0 0 0 0 0 0 0 0 0 0 127 0"/>
<feOffset dx="3" dy="3"/>
<feGaussianBlur stdDeviation="0.25"/>
<feColorMatrix type="matrix" values="0 0 0 0 1 0 0 0 0 0.760784 0 0 0 0 0.129412 0 0 0 1 0"/>
<feBlend mode="normal" in2="BackgroundImageFix" result="effect1_dropShadow"/>
<feBlend mode="normal" in="SourceGraphic" in2="effect1_dropShadow" result="shape"/>
</filter>
</defs>
</svg>
