<svg width="330" height="74" viewBox="0 0 330 74" fill="none" xmlns="http://www.w3.org/2000/svg">
<path d="M329.172 0H0V74H329.172V0Z" fill="white"/>
<path d="M147.171 51.8766V58.6897H145.742V56.6355H143.943L142.552 58.6897H140.842L142.45 56.4186C141.956 56.2486 141.579 55.989 141.314 55.6403C141.059 55.2831 140.932 54.8451 140.932 54.3262C140.932 53.5437 141.209 52.9397 141.761 52.5145C142.313 52.0892 143.075 51.8766 144.045 51.8766H147.171ZM144.096 53.2162C143.066 53.2162 142.552 53.6032 142.552 54.3772C142.552 55.1428 143.05 55.5255 144.045 55.5255H145.742V53.2162H144.096ZM154.575 55.1428C154.999 55.2618 155.327 55.4575 155.557 55.7297C155.796 55.9934 155.914 56.3123 155.914 56.6866C155.914 57.1034 155.774 57.4734 155.493 57.7966C155.212 58.1113 154.826 58.3579 154.332 58.5366C153.838 58.7152 153.277 58.8045 152.648 58.8045C152.121 58.8045 151.606 58.7449 151.104 58.6259C150.603 58.4983 150.147 58.3197 149.739 58.09L150.198 56.9034C150.53 57.0906 150.904 57.2352 151.321 57.3372C151.738 57.4393 152.154 57.4903 152.571 57.4903C153.107 57.4903 153.524 57.4096 153.822 57.2479C154.128 57.0779 154.281 56.8482 154.281 56.559C154.281 56.2952 154.162 56.0911 153.924 55.9466C153.694 55.802 153.366 55.7297 152.941 55.7297H151.615V54.6579H152.814C153.213 54.6579 153.524 54.5899 153.745 54.4538C153.975 54.3177 154.09 54.1263 154.09 53.8797C154.09 53.633 153.953 53.4373 153.681 53.2928C153.41 53.1482 153.035 53.0759 152.559 53.0759C151.879 53.0759 151.159 53.2417 150.402 53.5735L149.994 52.3997C150.887 51.9828 151.789 51.7745 152.699 51.7745C153.277 51.7745 153.796 51.8552 154.256 52.0169C154.715 52.17 155.072 52.3911 155.327 52.6803C155.591 52.961 155.723 53.2842 155.723 53.65C155.723 53.9817 155.621 54.2794 155.417 54.5431C155.212 54.7983 154.932 54.9982 154.575 55.1428ZM162.162 54.1221C163.03 54.1221 163.693 54.3177 164.152 54.709C164.612 55.1003 164.841 55.6531 164.841 56.3676C164.841 57.1161 164.586 57.6945 164.076 58.1028C163.574 58.511 162.86 58.711 161.932 58.7024L158.845 58.6897V51.8766H160.44V54.1093L162.162 54.1221ZM165.722 51.8766H167.317V58.6897H165.722V51.8766ZM161.792 57.5286C162.26 57.5372 162.618 57.4393 162.864 57.2352C163.11 57.031 163.234 56.7334 163.234 56.3421C163.234 55.9593 163.115 55.6786 162.877 55.5C162.638 55.3214 162.277 55.2279 161.792 55.2193L160.44 55.2066V57.5159L161.792 57.5286ZM173.568 55.9593H172.331V58.6897H170.736V51.8766H172.331V54.6324H173.607L175.622 51.8766H177.332L174.857 55.1555L177.498 58.6897H175.622L173.568 55.9593ZM179.899 51.8766H181.494V56.3676L185.258 51.8766H186.712V58.6897H185.117V54.1986L181.366 58.6897H179.899V51.8766ZM194.565 54.4793H198.074V55.8062H194.565V54.4793ZM208.041 51.7745C208.755 51.7745 209.397 51.9276 209.967 52.2338C210.536 52.5315 210.983 52.9483 211.307 53.4841C211.63 54.0115 211.792 54.6111 211.792 55.2831C211.792 55.9551 211.63 56.559 211.307 57.0948C210.983 57.6307 210.536 58.0517 209.967 58.3579C209.397 58.6556 208.755 58.8045 208.041 58.8045C207.419 58.8045 206.858 58.7024 206.357 58.4983C205.854 58.2941 205.429 58.0007 205.081 57.6179L205.999 56.7248C206.535 57.2607 207.194 57.5286 207.977 57.5286C208.555 57.5286 209.049 57.3755 209.457 57.0693C209.873 56.7546 210.141 56.3379 210.261 55.819H207.109V54.6707H210.248C210.12 54.1689 209.853 53.7734 209.444 53.4841C209.036 53.1865 208.546 53.0376 207.977 53.0376C207.194 53.0376 206.535 53.3097 205.999 53.8541L205.081 52.961C205.42 52.5697 205.841 52.2763 206.344 52.0807C206.854 51.8766 207.419 51.7745 208.041 51.7745ZM219.76 53.229H217.374V58.6897H215.779V53.229H213.38V51.8766H219.76V53.229ZM224.929 58.779C224.24 58.779 223.62 58.6301 223.067 58.3324C222.514 58.0348 222.08 57.6221 221.765 57.0948C221.459 56.559 221.306 55.9551 221.306 55.2831C221.306 54.6111 221.459 54.0115 221.765 53.4841C222.08 52.9568 222.514 52.5442 223.067 52.2466C223.62 51.9489 224.24 51.8 224.929 51.8C225.627 51.8 226.252 51.9489 226.805 52.2466C227.359 52.5442 227.787 52.9568 228.094 53.4841C228.409 54.0115 228.566 54.6111 228.566 55.2831C228.566 55.9551 228.409 56.559 228.094 57.0948C227.787 57.6221 227.359 58.0348 226.805 58.3324C226.252 58.6301 225.627 58.779 224.929 58.779ZM224.929 57.4138C225.516 57.4138 226.001 57.2182 226.384 56.8269C226.767 56.4356 226.958 55.921 226.958 55.2831C226.958 54.6452 226.767 54.1306 226.384 53.7393C226.001 53.348 225.516 53.1524 224.929 53.1524C224.342 53.1524 223.858 53.348 223.475 53.7393C223.101 54.1306 222.914 54.6452 222.914 55.2831C222.914 55.921 223.101 56.4356 223.475 56.8269C223.858 57.2182 224.342 57.4138 224.929 57.4138ZM242.752 51.8766V58.6897H241.17V53.229H237.814V58.6897H236.219V51.8766H242.752ZM249.955 51.8C250.619 51.8 251.211 51.9446 251.729 52.2338C252.257 52.523 252.669 52.9313 252.966 53.4586C253.265 53.9859 253.413 54.5941 253.413 55.2831C253.413 55.9721 253.265 56.5845 252.966 57.1203C252.669 57.6477 252.257 58.0559 251.729 58.3452C251.211 58.6344 250.619 58.779 249.955 58.779C249.037 58.779 248.31 58.4728 247.774 57.8603V61.1648H246.179V51.8766H247.697V52.7697C247.961 52.4465 248.284 52.2041 248.667 52.0424C249.058 51.8808 249.488 51.8 249.955 51.8ZM249.777 57.4138C250.364 57.4138 250.845 57.2182 251.219 56.8269C251.601 56.4356 251.793 55.921 251.793 55.2831C251.793 54.6452 251.601 54.1306 251.219 53.7393C250.845 53.348 250.364 53.1524 249.777 53.1524C249.394 53.1524 249.05 53.2417 248.743 53.4203C248.437 53.5904 248.195 53.8372 248.016 54.1603C247.837 54.4835 247.748 54.8579 247.748 55.2831C247.748 55.7084 247.837 56.0827 248.016 56.4059C248.195 56.729 248.437 56.98 248.743 57.1586C249.05 57.3287 249.394 57.4138 249.777 57.4138ZM259.313 58.779C258.624 58.779 258.004 58.6301 257.45 58.3324C256.897 58.0348 256.464 57.6221 256.148 57.0948C255.842 56.559 255.689 55.9551 255.689 55.2831C255.689 54.6111 255.842 54.0115 256.148 53.4841C256.464 52.9568 256.897 52.5442 257.45 52.2466C258.004 51.9489 258.624 51.8 259.313 51.8C260.01 51.8 260.636 51.9489 261.188 52.2466C261.742 52.5442 262.171 52.9568 262.477 53.4841C262.792 54.0115 262.949 54.6111 262.949 55.2831C262.949 55.9551 262.792 56.559 262.477 57.0948C262.171 57.6221 261.742 58.0348 261.188 58.3324C260.636 58.6301 260.01 58.779 259.313 58.779ZM259.313 57.4138C259.899 57.4138 260.384 57.2182 260.767 56.8269C261.15 56.4356 261.341 55.921 261.341 55.2831C261.341 54.6452 261.15 54.1306 260.767 53.7393C260.384 53.348 259.899 53.1524 259.313 53.1524C258.726 53.1524 258.241 53.348 257.858 53.7393C257.484 54.1306 257.297 54.6452 257.297 55.2831C257.297 55.921 257.484 56.4356 257.858 56.8269C258.241 57.2182 258.726 57.4138 259.313 57.4138ZM268.901 58.779C268.195 58.779 267.561 58.6301 267 58.3324C266.438 58.0348 266.001 57.6221 265.686 57.0948C265.372 56.559 265.213 55.9551 265.213 55.2831C265.213 54.6111 265.372 54.0115 265.686 53.4841C266.001 52.9568 266.434 52.5442 266.987 52.2466C267.548 51.9489 268.186 51.8 268.901 51.8C269.573 51.8 270.16 51.9361 270.661 52.2083C271.172 52.4804 271.554 52.8717 271.81 53.3821L270.585 54.0966C270.39 53.7818 270.143 53.5479 269.845 53.3948C269.556 53.2332 269.238 53.1524 268.888 53.1524C268.293 53.1524 267.8 53.348 267.408 53.7393C267.018 54.1221 266.821 54.6366 266.821 55.2831C266.821 55.9296 267.012 56.4483 267.395 56.8397C267.787 57.2224 268.284 57.4138 268.888 57.4138C269.238 57.4138 269.556 57.3372 269.845 57.1841C270.143 57.0225 270.39 56.7844 270.585 56.4697L271.81 57.1841C271.547 57.6945 271.159 58.09 270.649 58.3707C270.147 58.6428 269.564 58.779 268.901 58.779ZM279.825 53.229H277.439V58.6897H275.844V53.229H273.445V51.8766H279.825V53.229ZM284.994 58.779C284.305 58.779 283.685 58.6301 283.132 58.3324C282.579 58.0348 282.145 57.6221 281.83 57.0948C281.524 56.559 281.371 55.9551 281.371 55.2831C281.371 54.6111 281.524 54.0115 281.83 53.4841C282.145 52.9568 282.579 52.5442 283.132 52.2466C283.685 51.9489 284.305 51.8 284.994 51.8C285.692 51.8 286.317 51.9489 286.87 52.2466C287.424 52.5442 287.852 52.9568 288.159 53.4841C288.474 54.0115 288.631 54.6111 288.631 55.2831C288.631 55.9551 288.474 56.559 288.159 57.0948C287.852 57.6221 287.424 58.0348 286.87 58.3324C286.317 58.6301 285.692 58.779 284.994 58.779ZM284.994 57.4138C285.581 57.4138 286.066 57.2182 286.449 56.8269C286.832 56.4356 287.023 55.921 287.023 55.2831C287.023 54.6452 286.832 54.1306 286.449 53.7393C286.066 53.348 285.581 53.1524 284.994 53.1524C284.408 53.1524 283.923 53.348 283.54 53.7393C283.166 54.1306 282.979 54.6452 282.979 55.2831C282.979 55.921 283.166 56.4356 283.54 56.8269C283.923 57.2182 284.408 57.4138 284.994 57.4138Z" fill="#4D4D4D"/>
<path d="M171.698 18.6276L165.186 38.2759H161.312L156.456 23.7361L151.516 38.2759H147.615L141.103 18.6276H144.892L149.776 33.5603L154.856 18.6276H158.225L163.193 33.6445L168.217 18.6276H171.698ZM174.47 23.287H177.979V38.2759H174.47V23.287ZM176.239 20.817C175.603 20.817 175.07 20.6205 174.639 20.2275C174.209 19.8158 173.993 19.3106 173.993 18.7118C173.993 18.113 174.209 17.6171 174.639 17.2241C175.07 16.8124 175.603 16.6066 176.239 16.6066C176.875 16.6066 177.409 16.8031 177.839 17.1961C178.27 17.5703 178.484 18.0474 178.484 18.6276C178.484 19.2451 178.27 19.7691 177.839 20.1994C177.428 20.6112 176.894 20.817 176.239 20.817ZM191.09 23.1186C192.979 23.1186 194.495 23.6707 195.637 24.7747C196.777 25.8787 197.349 27.5161 197.349 29.6868V38.2759H193.84V30.1359C193.84 28.8259 193.532 27.8435 192.914 27.1886C192.297 26.515 191.416 26.1781 190.276 26.1781C188.984 26.1781 187.964 26.5711 187.216 27.357C186.467 28.1242 186.093 29.2377 186.093 30.6972V38.2759H182.585V23.287H185.925V25.2238C186.504 24.5314 187.234 24.0075 188.114 23.6519C188.993 23.2963 189.985 23.1186 191.09 23.1186ZM202.136 18.6276H205.785V35.1883H216.058V38.2759H202.136V18.6276ZM218.602 23.287H222.111V38.2759H218.602V23.287ZM220.371 20.817C219.735 20.817 219.202 20.6205 218.771 20.2275C218.341 19.8158 218.125 19.3106 218.125 18.7118C218.125 18.113 218.341 17.6171 218.771 17.2241C219.202 16.8124 219.735 16.6066 220.371 16.6066C221.007 16.6066 221.541 16.8031 221.971 17.1961C222.402 17.5703 222.616 18.0474 222.616 18.6276C222.616 19.2451 222.402 19.7691 221.971 20.1994C221.56 20.6112 221.026 20.817 220.371 20.817ZM235.222 23.1186C237.111 23.1186 238.627 23.6707 239.769 24.7747C240.91 25.8787 241.481 27.5161 241.481 29.6868V38.2759H237.972V30.1359C237.972 28.8259 237.664 27.8435 237.046 27.1886C236.429 26.515 235.548 26.1781 234.408 26.1781C233.117 26.1781 232.096 26.5711 231.348 27.357C230.599 28.1242 230.225 29.2377 230.225 30.6972V38.2759H226.717V23.287H230.057V25.2238C230.636 24.5314 231.366 24.0075 232.246 23.6519C233.125 23.2963 234.117 23.1186 235.222 23.1186ZM260.946 23.287V36.0023C260.946 41.2792 258.251 43.9177 252.862 43.9177C251.42 43.9177 250.055 43.7306 248.764 43.3563C247.473 43.0008 246.406 42.4769 245.564 41.7845L247.136 39.146C247.79 39.6886 248.613 40.1191 249.606 40.4372C250.616 40.774 251.636 40.9424 252.665 40.9424C254.311 40.9424 255.518 40.5682 256.286 39.8197C257.053 39.0711 257.437 37.9297 257.437 36.3952V35.6093C256.837 36.2642 256.108 36.7601 255.248 37.097C254.386 37.4338 253.441 37.6022 252.413 37.6022C250.99 37.6022 249.699 37.3028 248.539 36.704C247.397 36.0865 246.49 35.2257 245.816 34.1217C245.161 33.0176 244.834 31.7545 244.834 30.3323C244.834 28.9101 245.161 27.6565 245.816 26.5711C246.49 25.4671 247.397 24.6156 248.539 24.0168C249.699 23.4181 250.99 23.1186 252.413 23.1186C253.497 23.1186 254.48 23.2963 255.36 23.6519C256.258 24.0075 257.006 24.5501 257.605 25.2799V23.287H260.946ZM252.946 34.6269C254.274 34.6269 255.36 34.2339 256.202 33.448C257.062 32.6433 257.493 31.6048 257.493 30.3323C257.493 29.0786 257.062 28.0588 256.202 27.2728C255.36 26.4869 254.274 26.0939 252.946 26.0939C251.599 26.0939 250.494 26.4869 249.634 27.2728C248.792 28.0588 248.371 29.0786 248.371 30.3323C248.371 31.6048 248.792 32.6433 249.634 33.448C250.494 34.2339 251.599 34.6269 252.946 34.6269ZM272.294 38.4723C270.779 38.4723 269.412 38.1448 268.196 37.4899C266.98 36.835 266.026 35.9274 265.333 34.7672C264.66 33.5883 264.323 32.2598 264.323 30.7814C264.323 29.3031 264.66 27.9839 265.333 26.8237C266.026 25.6636 266.98 24.7559 268.196 24.101C269.412 23.4461 270.779 23.1186 272.294 23.1186C273.829 23.1186 275.205 23.4461 276.421 24.101C277.636 24.7559 278.582 25.6636 279.256 26.8237C279.948 27.9839 280.294 29.3031 280.294 30.7814C280.294 32.2598 279.948 33.5883 279.256 34.7672C278.582 35.9274 277.636 36.835 276.421 37.4899C275.205 38.1448 273.829 38.4723 272.294 38.4723ZM272.294 35.469C273.586 35.469 274.652 35.0386 275.494 34.1778C276.336 33.317 276.757 32.1849 276.757 30.7814C276.757 29.378 276.336 28.2459 275.494 27.3851C274.652 26.5243 273.586 26.0939 272.294 26.0939C271.003 26.0939 269.937 26.5243 269.095 27.3851C268.272 28.2459 267.86 29.378 267.86 30.7814C267.86 32.1849 268.272 33.317 269.095 34.1778C269.937 35.0386 271.003 35.469 272.294 35.469Z" fill="#4D4D4D"/>
<path d="M128.607 0V74" stroke="#4D4D4D" stroke-width="1.6"/>
<g filter="url(#filter0_d)">
<path d="M99.3399 22.8379L107.817 25.6476C108.72 22.9252 108.26 19.935 106.581 17.6097C104.902 15.2843 102.208 13.9069 99.3399 13.9069V22.8379ZM89.5719 52.3103V61.2414C93.4217 61.2414 96.8383 58.7744 98.0495 55.1201L89.5719 52.3103ZM83.7616 52.3103L75.2905 55.1394C76.5077 58.7839 79.9193 61.2414 83.7616 61.2414V52.3103ZM76.4777 30.5008L84.9488 27.6717C83.7343 24.0353 80.3346 21.5797 76.5009 21.5697C72.6672 21.5598 69.2548 23.9977 68.0214 27.6276L76.4777 30.5008ZM69.0675 52.3103V61.2414C72.8927 61.2414 76.2932 58.8054 77.5238 55.1835L69.0675 52.3103ZM63.2151 52.3103L54.7375 55.1201C55.9487 58.7744 59.3653 61.2414 63.2151 61.2414V52.3103ZM53.4471 22.8379V13.9069C50.579 13.9069 47.8854 15.2843 46.2064 17.6097C44.5273 19.935 44.0672 22.9252 44.9695 25.6476L53.4471 22.8379ZM59.1311 22.8379L67.6197 20.0617C66.4188 16.3902 62.9939 13.9069 59.1311 13.9069V22.8379ZM66.4571 45.237L57.9685 48.0132C59.1632 51.6662 62.561 54.145 66.4043 54.1679C70.2474 54.1906 73.6743 51.752 74.9122 48.1137L66.4571 45.237ZM74.0778 22.8379V13.9069C70.2539 13.9069 66.8544 16.3412 65.6227 19.9612L74.0778 22.8379ZM79.1302 22.8379L87.6092 20.0327C86.3995 16.3761 82.9818 13.9069 79.1302 13.9069V22.8379ZM86.5825 45.3633L78.1035 48.1685C79.3115 51.8199 82.7215 54.2878 86.5675 54.2943C90.4136 54.3008 93.8317 51.8443 95.0521 48.197L86.5825 45.3633ZM94.119 22.8379V13.9069C90.2786 13.9069 86.8681 16.3622 85.6495 20.0042L94.119 22.8379ZM90.8623 20.0282L81.0943 49.5006L98.0495 55.1201L107.817 25.6476L90.8623 20.0282ZM89.5719 43.3793H83.7616V61.2414H89.5719V43.3793ZM92.2327 49.4813L84.9488 27.6717L68.0066 33.3299L75.2905 55.1394L92.2327 49.4813ZM68.0214 27.6276L60.6112 49.4372L77.5238 55.1835L84.934 33.3739L68.0214 27.6276ZM69.0675 43.3793H63.2151V61.2414H69.0675V43.3793ZM71.6927 49.5006L61.9247 20.0282L44.9695 25.6476L54.7375 55.1201L71.6927 49.5006ZM53.4471 31.769H59.1311V13.9069H53.4471V31.769ZM50.6425 25.6142L57.9685 48.0132L74.9457 42.4607L67.6197 20.0617L50.6425 25.6142ZM74.9122 48.1137L82.533 25.7146L65.6227 19.9612L58.0019 42.3603L74.9122 48.1137ZM74.0778 31.769H79.1302V13.9069H74.0778V31.769ZM70.6512 25.6432L78.1035 48.1685L95.0615 42.558L87.6092 20.0327L70.6512 25.6432ZM95.0521 48.197L102.589 25.6716L85.6495 20.0042L78.113 42.5296L95.0521 48.197ZM94.119 31.769H99.3399V13.9069H94.119V31.769Z" fill="#FF4949"/>
<path d="M99.3399 22.8379L89.5719 52.3103H83.7616L76.4777 30.5008L69.0675 52.3103H63.2151L53.4471 22.8379H59.1311L66.4571 45.237L74.0778 22.8379H79.1302L86.5826 45.3633L94.1191 22.8379H99.3399Z" fill="#FFAE78"/>
</g>
<defs>
<filter id="filter0_d" x="44.516" y="13.9069" width="67.255" height="50.8345" filterUnits="userSpaceOnUse" color-interpolation-filters="sRGB">
<feFlood flood-opacity="0" result="BackgroundImageFix"/>
<feColorMatrix in="SourceAlpha" type="matrix" values="0 0 0 0 0 0 0 0 0 0 0 0 0 0 0 0 0 0 127 0"/>
<feOffset dx="3" dy="3"/>
<feGaussianBlur stdDeviation="0.25"/>
<feColorMatrix type="matrix" values="0 0 0 0 1 0 0 0 0 0.760784 0 0 0 0 0.129412 0 0 0 1 0"/>
<feBlend mode="normal" in2="BackgroundImageFix" result="effect1_dropShadow"/>
<feBlend mode="normal" in="SourceGraphic" in2="effect1_dropShadow" result="shape"/>
</filter>
</defs>
</svg>
