<svg width="88" height="88" viewBox="0 0 88 88" fill="none" xmlns="http://www.w3.org/2000/svg">
<path d="M72.0191 58.6978H63.2004V61.6373H72.0191V58.6978Z" fill="#EDB41E"/>
<path d="M60.2609 58.6978H51.4423V61.6373H60.2609V58.6978Z" fill="#EDB41E"/>
<path d="M48.5026 58.6978H39.684V61.6373H48.5026V58.6978Z" fill="#EDB41E"/>
<path d="M86.6977 30.4825L57.6153 1.39556C56.7894 0.561826 55.6641 0.0933346 54.4905 0.0948044H54.4773C53.3114 0.0953556 52.1947 0.564031 51.3775 1.39556L20.5269 32.2418H4.40933C1.97409 32.2418 0 34.2159 0 36.6511V77.8049C0 80.2401 1.97409 82.2142 4.40933 82.2142H26.1856L30.5714 86.6045C31.3972 87.4382 32.5225 87.9067 33.6961 87.9052H33.7079C34.8741 87.9048 35.9915 87.4362 36.8091 86.6045L41.2037 82.2142H74.9586C77.3939 82.2142 79.368 80.2401 79.368 77.8049V44.05L86.6904 36.7276C87.5262 35.9094 87.998 34.7898 88 33.6204C88.0044 32.442 87.5352 31.3114 86.6977 30.4825ZM68.0007 15.9419L51.7009 32.2418H39.2195L61.76 9.70127L68.0007 15.9419ZM53.4587 3.46794C54.0178 2.89528 54.9353 2.88426 55.5082 3.44351C55.5164 3.45159 55.5247 3.45968 55.5326 3.46794L59.6818 7.62301L35.0615 32.2418H24.6834L53.4587 3.46794ZM34.7279 84.5321C34.4591 84.8128 34.0876 84.9719 33.6991 84.973C33.3052 84.9721 32.9282 84.8134 32.6526 84.5321L30.3436 82.2142H37.0472L34.7279 84.5321ZM76.4284 77.8049C76.4284 78.6166 75.7703 79.2747 74.9586 79.2747H4.40933C3.59765 79.2747 2.93955 78.6166 2.93955 77.8049V57.228H76.4284V77.8049ZM76.4284 54.2885H2.93955V45.4698H76.4284V54.2885ZM76.4284 42.5302H2.93955V36.6511C2.93955 35.8394 3.59765 35.1813 4.40933 35.1813H74.9586C75.7703 35.1813 76.4284 35.8394 76.4284 36.6511V42.5302ZM84.6195 34.6419L79.368 39.8935V36.6511C79.368 34.2159 77.3939 32.2418 74.9586 32.2418H55.8515L70.0731 18.0202L84.6136 32.5607C84.896 32.8374 85.0549 33.2162 85.0545 33.6116C85.0542 33.9996 84.8973 34.3711 84.6195 34.6419Z" fill="#EDB41E"/>
<path d="M14.0966 76.3748C14.3112 76.1892 14.5122 75.9882 14.6977 75.7737C16.6413 78.0375 19.9809 78.4676 22.4347 76.7702C24.0183 75.6629 24.9689 73.8582 24.9862 71.9258C24.9862 68.6788 22.354 66.0467 19.1071 66.0467C18.8153 66.0426 18.5239 66.0672 18.237 66.1201L18.1988 66.1304C18.1841 66.1304 18.1694 66.1304 18.1561 66.1304C16.8096 66.3542 15.5851 67.0452 14.6977 68.0823C12.5739 65.6263 8.86108 65.3571 6.40526 67.4812C3.94926 69.605 3.68011 73.3178 5.80412 75.7737C7.92795 78.2297 11.6406 78.4988 14.0966 76.3748ZM18.7352 69.0171C18.8578 68.9937 18.9823 68.9835 19.1071 68.9862C20.7306 68.9862 22.0466 70.3022 22.0466 71.9258C22.0452 72.5477 21.8425 73.1525 21.469 73.6498C21.4161 73.7218 21.3749 73.7968 21.3147 73.8718C21.3044 73.8835 21.2897 73.8909 21.2779 73.9026C20.7227 74.5157 19.9342 74.8655 19.1071 74.8653C17.4839 74.8376 16.1903 73.4994 16.2181 71.8762C16.2427 70.4349 17.3086 69.2239 18.7352 69.0171ZM10.2884 68.9862C11.912 68.9862 13.228 70.3022 13.228 71.9258C13.228 73.5493 11.912 74.8653 10.2884 74.8653C8.66486 74.8653 7.34886 73.5493 7.34886 71.9258C7.34886 70.3022 8.66486 68.9862 10.2884 68.9862Z" fill="#EDB41E"/>
</svg>
