<svg width="88" height="88" viewBox="0 0 88 88" fill="none" xmlns="http://www.w3.org/2000/svg">
<path d="M67.375 68.6073H64.7969H22.9367H20.3586H17.7805V75.4445H69.9531V68.6073H67.375Z" fill="#EDB41E"/>
<path d="M23.8614 26.1646L20.2744 34.9113L22.5912 36.0525L24.9098 37.1938L27.7389 38.586L29.8409 35.5833L31.3259 33.4624L32.8092 31.3431L23.8614 26.1646Z" fill="#EDB41E"/>
<path d="M64.1386 26.1646L55.0206 31.4411L56.5056 33.5603L57.9889 35.6813L60.0222 38.586L63.0506 37.0958L65.3675 35.9546L67.6861 34.8133L64.1386 26.1646Z" fill="#EDB41E"/>
<path d="M80.7297 25.5527C77.012 25.5527 73.9389 28.3542 73.5109 31.9585C73.4766 32.242 73.4594 32.5308 73.4594 32.823C73.4594 33.4795 73.547 34.1172 73.712 34.7222C73.9406 35.5695 74.3205 36.3567 74.8189 37.0511L69.6489 39.5966L67.3303 40.7378L67.0416 40.8805H67.0398L65.0117 41.8774L58.3344 45.1653L53.5098 38.2749L52.2122 36.4203V36.4186L52.0248 36.1522L50.5416 34.033L45.5538 26.907C46.4269 26.7042 47.2416 26.3433 47.9634 25.8552C48.6905 25.367 49.3247 24.7466 49.8334 24.0316C50.6791 22.8439 51.1775 21.3916 51.1775 19.8258C51.1775 15.8159 47.917 12.5555 43.9072 12.5555C39.8991 12.5555 36.6369 15.8159 36.6369 19.8258C36.6369 21.3761 37.125 22.8147 37.9552 23.9955C38.4605 24.7139 39.0912 25.3378 39.8148 25.8311C40.5333 26.3227 41.3445 26.6888 42.2159 26.8967L37.2883 33.935L35.805 36.0542L35.487 36.5097L34.32 38.1769L29.4284 45.1653L22.947 41.9753L20.8123 40.9235L20.6302 40.8341L18.3116 39.6928L12.6844 36.9239C13.2602 36.2811 13.7242 35.5352 14.0439 34.7188C14.3636 33.9024 14.5389 33.0155 14.5406 32.0891V32.0753C14.5406 28.0655 11.2802 24.8033 7.27031 24.8033C3.26219 24.8033 0 28.0655 0 32.0753C0 35.7517 2.74484 38.8025 6.29406 39.2803C6.61375 39.3233 6.93859 39.3456 7.27031 39.3456C7.85812 39.3456 8.42875 39.2752 8.97703 39.1428C9.83469 38.9366 10.6339 38.5774 11.3438 38.0961L19.4425 60.873L20.3586 63.4511H67.4025L68.3186 60.873L76.2575 38.5499C76.9398 39.0844 77.7184 39.4986 78.5641 39.7633C79.2481 39.9781 79.9752 40.0933 80.7297 40.0933C80.8844 40.0933 81.0373 40.0881 81.1886 40.0778C84.9836 39.8406 88 36.6764 88 32.823C88 28.8131 84.7378 25.5527 80.7297 25.5527Z" fill="#EDB41E"/>
</svg>
