<svg width="88" height="88" viewBox="0 0 88 88" fill="none" xmlns="http://www.w3.org/2000/svg">
<g clip-path="url(#clip0)">
<path d="M44 84.3334C43.461 84.3334 42.9477 84.095 42.5957 83.6807L0.429012 33.5977C-0.0586551 33.0184 -0.139322 32.197 0.223678 31.537L15.0077 4.62002C15.3303 4.03335 15.9463 3.66669 16.6137 3.66669H71.3863C72.0573 3.66669 72.6733 4.03335 72.9923 4.62002L87.7727 31.537C88.1393 32.2007 88.055 33.0184 87.5673 33.5977L45.4007 83.6807C45.0523 84.095 44.539 84.3334 44 84.3334ZM4.04801 32.197L44 79.6547L83.952 32.197L70.301 7.33335H17.699L4.04801 32.197Z" fill="#EDB41E"/>
<path d="M85.25 34.8334H2.75002C1.73802 34.8334 0.916687 34.012 0.916687 33C0.916687 31.988 1.73802 31.1667 2.75002 31.1667H85.25C86.262 31.1667 87.0833 31.988 87.0833 33C87.0833 34.012 86.262 34.8334 85.25 34.8334Z" fill="#EDB41E"/>
<path d="M62.5607 33.803C61.985 33.803 61.4167 33.5317 61.061 33.022L44.0073 8.70102L27.17 32.8937C26.598 33.726 25.4503 33.9277 24.6217 33.352C23.7857 32.7727 23.584 31.6324 24.1633 30.8L42.4967 4.45135C42.8377 3.96002 43.3987 3.66669 43.9963 3.66669H44C44.5977 3.66669 45.155 3.95635 45.4997 4.44769L64.0604 30.9174C64.6434 31.7497 64.4417 32.89 63.613 33.4694C63.2977 33.693 62.9274 33.803 62.5607 33.803V33.803Z" fill="#EDB41E"/>
<path d="M44 84.3334C43.2226 84.3334 42.5333 83.8457 42.273 83.116L14.8866 6.11602C14.5493 5.15902 15.048 4.11035 15.9976 3.77302C16.9583 3.42102 18.0033 3.93069 18.3406 4.88402L44 77.0293L69.6593 4.88402C69.9966 3.93435 71.0416 3.42835 72.0023 3.77302C72.9556 4.11035 73.4543 5.15902 73.1133 6.11602L45.727 83.116C45.4666 83.8457 44.7773 84.3334 44 84.3334Z" fill="#EDB41E"/>
</g>
<defs>
<clipPath id="clip0">
<rect width="88" height="88" fill="white"/>
</clipPath>
</defs>
</svg>
