<svg width="88" height="88" viewBox="0 0 88 88" fill="none" xmlns="http://www.w3.org/2000/svg">
<g clip-path="url(#clip0)">
<path d="M87.9825 33.642C87.9734 33.5409 87.9533 33.441 87.9223 33.3443C87.9022 33.2578 87.8742 33.1734 87.8388 33.0919C87.7977 33.0124 87.7485 32.9371 87.6922 32.8675C87.6356 32.7848 87.5701 32.7086 87.4971 32.6401C87.4735 32.6196 87.4634 32.5916 87.4385 32.5711L73.3328 21.6161V10.2622C73.3328 7.83207 71.3627 5.86194 68.9326 5.86194H53.0375L46.6731 0.920457C45.1009 -0.305761 42.8962 -0.305761 41.324 0.920457L34.9582 5.86194H19.0631C16.633 5.86194 14.6629 7.8319 14.6629 10.2622V21.6163L0.561727 32.5713C0.536804 32.5919 0.526491 32.6198 0.503115 32.6402C0.430064 32.7086 0.364577 32.785 0.308027 32.8676C0.251649 32.9372 0.20249 33.0124 0.16141 33.0921C0.12583 33.1734 0.097985 33.258 0.0778746 33.3444C0.0472793 33.4398 0.0271689 33.5381 0.0177152 33.6378C0.0177152 33.6686 0.000183105 33.6951 0.000183105 33.7258V83.5991C0.00224571 84.5321 0.304074 85.4396 0.861149 86.1879C0.869915 86.2011 0.871462 86.2172 0.881603 86.2289C0.891916 86.2406 0.913917 86.2539 0.928527 86.27C1.75254 87.3543 3.0341 87.9935 4.39594 87.9993H83.6C84.9671 87.9952 86.254 87.3529 87.0791 86.2628C87.0907 86.2482 87.1085 86.2437 87.1186 86.2291C87.1289 86.2145 87.1303 86.2013 87.1392 86.188C87.6963 85.4396 87.9981 84.5321 88.0002 83.5993V33.73C88 33.6992 87.984 33.6727 87.9825 33.642ZM43.1177 3.23487C43.6299 2.82785 44.3553 2.82785 44.8675 3.23487L48.2512 5.86177H39.7442L43.1177 3.23487ZM4.76549 85.066L43.1179 55.2749C43.6305 54.8686 44.3553 54.8686 44.8677 55.2749L83.2302 85.066H4.76549ZM85.0666 82.7792L46.6731 52.9603C45.1006 51.7351 42.8965 51.7351 41.324 52.9603L2.92908 82.7792V35.9638L26.9646 54.6281C27.6051 55.1247 28.5267 55.0081 29.0233 54.3677C29.5198 53.7273 29.4033 52.8056 28.7629 52.3091L4.34454 33.3486L14.6631 25.3298V36.6633C14.6631 37.4734 15.3198 38.13 16.1298 38.13C16.9398 38.13 17.5964 37.4733 17.5964 36.6633V10.262C17.5964 9.45191 18.253 8.79531 19.0631 8.79531H68.9323C69.7424 8.79531 70.3989 9.45191 70.3989 10.262V36.6633C70.3989 37.4734 71.0555 38.13 71.8656 38.13C72.6757 38.13 73.3323 37.4733 73.3323 36.6633V25.3298L83.6508 33.3486L59.1901 52.3429C58.7693 52.6618 58.5522 53.1822 58.622 53.7056C58.6918 54.229 59.0374 54.6745 59.5271 54.872C60.0168 55.0695 60.5749 54.9887 60.9883 54.6603L85.0663 35.9638V82.7792H85.0666Z" fill="#EDB41E"/>
<path d="M61.5987 35.1967V29.3297C61.5987 19.609 53.7185 11.7289 43.9978 11.7289C34.2771 11.7289 26.3969 19.609 26.3969 29.3297C26.3969 39.0505 34.2771 46.9306 43.9978 46.9306C44.8079 46.9306 45.4645 46.274 45.4645 45.464C45.4645 44.6539 44.8079 43.9973 43.9978 43.9973C35.8973 43.9973 29.3304 37.4305 29.3304 29.3299C29.3304 21.2294 35.8973 14.6626 43.9978 14.6626C52.0983 14.6626 58.6651 21.2294 58.6651 29.3299V35.1968C58.6651 36.817 57.3518 38.1304 55.7316 38.1304C54.1114 38.1304 52.7981 36.817 52.7981 35.1968V29.3299C52.7981 28.5198 52.1415 27.8632 51.3314 27.8632C50.5213 27.8632 49.8647 28.5198 49.8647 29.3299C49.8647 32.5701 47.238 35.1968 43.9978 35.1968C40.7576 35.1968 38.1309 32.5701 38.1309 29.3299C38.1309 26.0897 40.7576 23.463 43.9978 23.463C44.8079 23.463 45.4645 22.8064 45.4645 21.9963C45.4645 21.1862 44.8079 20.5296 43.9978 20.5296C40.0591 20.5209 36.5941 23.1302 35.5146 26.9182C34.4352 30.7062 36.004 34.7501 39.3557 36.8189C42.7075 38.8877 47.0255 38.4776 49.9278 35.8146C50.2471 38.9164 52.9431 41.2227 56.057 41.0579C59.171 40.8929 61.6085 38.315 61.5987 35.1967Z" fill="#EDB41E"/>
</g>
<defs>
<clipPath id="clip0">
<rect width="88" height="88" fill="white"/>
</clipPath>
</defs>
</svg>
