<svg width="88" height="88" viewBox="0 0 88 88" fill="none" xmlns="http://www.w3.org/2000/svg">
<path d="M44 0C19.7388 0 0 19.7388 0 44C0 68.2612 19.7388 88 44 88C68.2612 88 88 68.2612 88 44C88 19.7388 68.2612 0 44 0ZM44 77C25.8045 77 11 62.1955 11 44C11 37.0552 13.1055 30.4899 17.1088 24.8878L63.1122 70.8912C57.5101 74.8945 50.9448 77 44 77ZM70.8912 63.1122L24.8878 17.1088C30.4899 13.1055 37.0552 11 44 11C62.1955 11 77 25.8045 77 44C77 50.9448 74.8945 57.5101 70.8912 63.1122Z" fill="#EDB41E"/>
</svg>
