<svg width="88" height="88" viewBox="0 0 88 88" fill="none" xmlns="http://www.w3.org/2000/svg">
<g clip-path="url(#clip0)">
<path d="M77.8097 27.1455L54.8229 25.0135L45.6919 3.81047C45.0525 2.32581 42.9475 2.32581 42.3083 3.81047L33.1773 25.0133L10.1905 27.1455C8.58089 27.2946 7.93051 29.2967 9.14481 30.3635L26.4884 45.5995L21.4128 68.1202C21.0573 69.6971 22.7604 70.9343 24.1502 70.1091L44.0001 58.3226L63.85 70.1091C65.2399 70.9345 66.9427 69.6971 66.5874 68.1202L61.5116 45.5995L78.8554 30.3635C80.0697 29.2967 79.4191 27.2946 77.8097 27.1455Z" fill="#EDB41E"/>
<path d="M20.5009 3.08053C21.6728 4.70819 24.9803 11.6984 26.8713 15.7721C27.1686 16.4126 26.3651 16.9911 25.8521 16.5059C22.5887 13.4204 17.0088 8.06612 15.8369 6.43828C14.9096 5.15042 15.202 3.35467 16.49 2.4274C17.7779 1.50013 19.5736 1.79267 20.5009 3.08053Z" fill="#EDB41E"/>
<path d="M67.4992 3.08053C66.3274 4.70819 63.0198 11.6984 61.1288 15.7721C60.8315 16.4126 61.635 16.9911 62.1481 16.5059C65.4115 13.4204 70.9912 8.06594 72.1632 6.43828C73.0905 5.15042 72.7981 3.35467 71.5101 2.4274C70.2222 1.50013 68.4265 1.79267 67.4992 3.08053Z" fill="#EDB41E"/>
<path d="M86.0169 50.8113C84.1101 50.1895 76.4453 49.1622 71.9898 48.5984C71.2894 48.5097 70.9824 49.4511 71.6003 49.7924C75.5316 51.9641 82.3281 55.6532 84.2349 56.2751C85.7436 56.7671 87.3656 55.943 87.8577 54.4341C88.3497 52.9252 87.5256 51.3034 86.0169 50.8113Z" fill="#EDB41E"/>
<path d="M1.98325 50.8113C3.89004 50.1895 11.5548 49.1622 16.0103 48.5984C16.7107 48.5097 17.0177 49.4511 16.3998 49.7924C12.4685 51.9641 5.67204 55.6532 3.76526 56.2751C2.25653 56.7671 0.634547 55.943 0.142468 54.4341C-0.349611 52.9252 0.474531 51.3034 1.98325 50.8113Z" fill="#EDB41E"/>
<path d="M41.2147 83.2409C41.2147 81.2353 42.6146 73.6298 43.4602 69.219C43.5931 68.5257 44.5832 68.5257 44.7161 69.219C45.5617 73.6298 46.9617 81.2353 46.9617 83.2409C46.9617 84.8279 45.6752 86.1143 44.0882 86.1143C42.5011 86.1145 41.2147 84.8279 41.2147 83.2409Z" fill="#EDB41E"/>
<path d="M49.0121 11.5208L45.6917 3.81047C45.0523 2.32581 42.9474 2.32581 42.3081 3.81047L33.1771 25.0133L10.1905 27.1455C8.58089 27.2946 7.93051 29.2967 9.14481 30.3635L26.4884 45.5995L21.4128 68.1202C21.0573 69.6971 22.7604 70.9343 24.1502 70.1091L26.7921 68.5404C31.1232 40.5041 43.2992 19.9234 49.0121 11.5208Z" fill="#EDB41E"/>
</g>
<defs>
<clipPath id="clip0">
<rect width="88" height="88" fill="white"/>
</clipPath>
</defs>
</svg>
