<svg width="88" height="88" viewBox="0 0 88 88" fill="none" xmlns="http://www.w3.org/2000/svg">
<path d="M43.3729 42.3899C49.1965 42.3899 54.2386 40.3013 58.3596 36.1803C62.4792 32.06 64.5685 27.0186 64.5685 21.1943C64.5685 15.372 62.4798 10.3299 58.3589 6.2083C54.2379 2.08868 49.1958 0 43.3729 0C37.5486 0 32.5072 2.08868 28.3869 6.20897C24.2666 10.3293 22.1772 15.3714 22.1772 21.1943C22.1772 27.0186 24.2666 32.0607 28.3869 36.181C32.5085 40.3006 37.5506 42.3899 43.3729 42.3899ZM32.0339 9.85527C35.1954 6.69371 38.9041 5.15691 43.3729 5.15691C47.841 5.15691 51.5504 6.69371 54.7126 9.85527C57.8741 13.0175 59.4116 16.7269 59.4116 21.1943C59.4116 25.663 57.8741 29.3718 54.7126 32.534C51.5504 35.6962 47.841 37.233 43.3729 37.233C38.9055 37.233 35.1968 35.6956 32.0339 32.534C28.8716 29.3724 27.3342 25.663 27.3342 21.1943C27.3342 16.7269 28.8716 13.0175 32.0339 9.85527Z" fill="#EDB41E"/>
<path d="M80.4595 67.6676C80.3407 65.9529 80.1003 64.0824 79.7465 62.1072C79.3893 60.1172 78.9294 58.236 78.3789 56.5166C77.8096 54.7394 77.0368 52.9844 76.0801 51.3026C75.0884 49.557 73.9229 48.037 72.615 46.7862C71.2474 45.4776 69.573 44.4256 67.6367 43.6582C65.7072 42.8948 63.5688 42.5081 61.2814 42.5081C60.3831 42.5081 59.5143 42.8767 57.8365 43.969C56.8039 44.6424 55.5961 45.4212 54.248 46.2826C53.0952 47.0171 51.5335 47.7053 49.6047 48.3283C47.7228 48.9373 45.812 49.2461 43.9254 49.2461C42.0402 49.2461 40.1294 48.9373 38.2462 48.3283C36.3193 47.706 34.757 47.0178 33.6062 46.2833C32.2708 45.43 31.0623 44.6512 30.0143 43.9684C28.3379 42.876 27.4691 42.5074 26.5708 42.5074C24.2827 42.5074 22.145 42.8948 20.2161 43.6589C18.2812 44.4249 16.6061 45.477 15.2371 46.7868C13.9292 48.0383 12.7637 49.5576 11.7728 51.3026C10.8174 52.9844 10.0439 54.7387 9.47461 56.5172C8.92474 58.2366 8.46484 60.1172 8.10766 62.1072C7.75317 64.0797 7.51349 65.9509 7.39465 67.6696C7.27783 69.3501 7.21875 71.0991 7.21875 72.8661C7.21875 77.4598 8.67901 81.1786 11.5586 83.9212C14.4026 86.6275 18.165 87.9998 22.7419 87.9998H65.1143C69.6898 87.9998 73.4523 86.6275 76.2969 83.9212C79.1772 81.1806 80.6374 77.4604 80.6374 72.8655C80.6368 71.0923 80.577 69.3434 80.4595 67.6676V67.6676ZM72.7413 80.1849C70.8621 81.9735 68.3672 82.8429 65.1137 82.8429H22.7419C19.4876 82.8429 16.9928 81.9735 15.1142 80.1856C13.2713 78.4313 12.3757 76.0364 12.3757 72.8661C12.3757 71.2172 12.43 69.5891 12.5388 68.0261C12.6449 66.4927 12.8617 64.8082 13.1833 63.0183C13.5009 61.2505 13.9051 59.5915 14.3858 58.0896C14.847 56.6495 15.4761 55.2235 16.2563 53.8498C17.0008 52.5406 17.8575 51.4174 18.8028 50.5124C19.687 49.6657 20.8015 48.9729 22.1148 48.4532C23.3293 47.9725 24.6942 47.7093 26.176 47.6697C26.3566 47.7657 26.6782 47.949 27.1992 48.2887C28.2593 48.9796 29.4812 49.7678 30.832 50.6305C32.3547 51.6013 34.3165 52.4782 36.6603 53.2348C39.0565 54.0096 41.5004 54.403 43.9261 54.403C46.3518 54.403 48.7963 54.0096 51.1911 53.2355C53.537 52.4775 55.4981 51.6013 57.0228 50.6292C58.4052 49.7456 59.5929 48.9803 60.653 48.2887C61.174 47.9497 61.4956 47.7657 61.6762 47.6697C63.1586 47.7093 64.5235 47.9725 65.7387 48.4532C67.0513 48.9729 68.1658 49.6664 69.05 50.5124C69.9953 51.4167 70.852 52.5399 71.5966 53.8505C72.3774 55.2235 73.0071 56.6502 73.4677 58.0889C73.9491 59.5928 74.3539 61.2512 74.6708 63.0176C74.9918 64.8109 75.2093 66.496 75.3154 68.0268V68.0281C75.4248 69.5851 75.4799 71.2125 75.4805 72.8661C75.4799 76.0371 74.5842 78.4313 72.7413 80.1849V80.1849Z" fill="#EDB41E"/>
</svg>
