<svg width="88" height="88" viewBox="0 0 88 88" fill="none" xmlns="http://www.w3.org/2000/svg">
<g clip-path="url(#clip0)">
<path d="M79.3237 3.82233H8.67642C3.89228 3.82233 0 7.71444 0 12.4986V60.3546C0 65.1387 3.89228 69.0308 8.67642 69.0308H29.0048V79.0214H23.4357C22.0119 79.0214 20.8575 80.1757 20.8575 81.5995C20.8575 83.0234 22.0119 84.1777 23.4357 84.1777H64.5643C65.9881 84.1777 67.1425 83.0234 67.1425 81.5995C67.1425 80.1757 65.9881 79.0214 64.5643 79.0214H58.9952V69.0308H79.3237C84.1079 69.0308 88 65.1386 88 60.3546V12.4986C88 7.71444 84.1077 3.82233 79.3237 3.82233ZM53.839 79.0214H34.161V69.0308H53.839V79.0214ZM82.8438 60.3546C82.8438 62.2956 81.2646 63.8746 79.3237 63.8746H8.67642C6.73544 63.8746 5.15625 62.2954 5.15625 60.3546V54.0126H82.8438V60.3546ZM23.7359 37.5952C25.1793 38.3225 26.8077 38.7348 28.5312 38.7348C30.2564 38.7348 31.8861 38.3218 33.3305 37.5934C35.8531 39.2184 37.3909 42.0045 37.3909 45.0414V48.8563H19.6718V45.0414C19.6718 41.9952 21.187 39.2368 23.7359 37.5952ZM22.9907 28.0378C22.9907 24.9827 25.4762 22.4972 28.5312 22.4972C31.5863 22.4972 34.0718 24.9827 34.0718 28.0378C34.0718 31.0929 31.5863 33.5785 28.5312 33.5785C25.4762 33.5785 22.9907 31.093 22.9907 28.0378ZM82.8438 48.8562H42.5471V45.0412C42.5471 40.738 40.5955 36.7536 37.3216 34.1229C38.522 32.394 39.2281 30.2974 39.2281 28.038C39.2281 22.1397 34.4295 17.3412 28.5312 17.3412C22.633 17.3412 17.8344 22.1397 17.8344 28.038C17.8344 30.299 18.5415 32.3969 19.7435 34.1265C16.4799 36.766 14.5155 40.7926 14.5155 45.0414V48.8563H5.15625V12.4986C5.15625 10.5576 6.73544 8.97858 8.67642 8.97858H54.0999V37.0672C54.0999 38.4911 55.2542 39.6454 56.678 39.6454H82.8438V48.8562ZM70.6406 30.9126C71.5328 30.9126 72.3865 30.746 73.1744 30.4451C73.9886 31.1666 74.4631 32.2035 74.4631 33.3061V34.489H66.8183V33.3061C66.8183 32.1956 67.2849 31.1711 68.1074 30.4451C68.8951 30.7462 69.7486 30.9126 70.6406 30.9126ZM68.6754 23.7911C68.6754 22.7074 69.557 21.8259 70.6406 21.8259C71.7243 21.8259 72.6058 22.7074 72.6058 23.7911C72.6058 24.8748 71.7243 25.7563 70.6406 25.7563C69.557 25.7563 68.6754 24.8748 68.6754 23.7911ZM82.8438 34.4891H79.6194V33.3063C79.6194 30.9083 78.6644 28.6437 77.0067 26.9772C77.4888 26.0177 77.7619 24.9361 77.7619 23.7913C77.7619 19.8645 74.5673 16.6698 70.6404 16.6698C66.7136 16.6698 63.519 19.8645 63.519 23.7913C63.519 24.9373 63.7928 26.0202 64.2759 26.9802C62.6221 28.6502 61.6619 30.9299 61.6619 33.3063V34.4891H59.256V8.97858H79.3237C81.2647 8.97858 82.8438 10.5578 82.8438 12.4986V34.4891Z" fill="#EDB41E"/>
</g>
<defs>
<clipPath id="clip0">
<rect width="88" height="88" fill="white"/>
</clipPath>
</defs>
</svg>
