<svg width="88" height="88" viewBox="0 0 88 88" fill="none" xmlns="http://www.w3.org/2000/svg">
<path d="M80.2197 0H7.78027C3.51554 0 0.0458984 3.46964 0.0458984 7.73438V69.8218C0.0458984 74.0865 3.51554 77.5562 7.78027 77.5562H34.1V82.8438H15.1482V88H72.9434V82.8438H53.9V77.5562H80.2199C84.4847 77.5562 87.9543 74.0865 87.9543 69.8218V7.73438C87.9541 3.46964 84.4846 0 80.2197 0V0ZM82.7979 7.73438V31.0437H74.8621V26.6406C74.8621 24.3569 73.5828 22.3666 71.7035 21.3481C72.1784 20.3462 72.4451 19.2273 72.4451 18.0469C72.4451 13.7821 68.9755 10.3125 64.7108 10.3125C60.446 10.3125 56.9764 13.7821 56.9764 18.0469C56.9764 19.2273 57.2431 20.3462 57.718 21.3481C55.8386 22.3666 54.5595 24.3571 54.5595 26.6406V31.0437H46.624V5.15625H80.2199C81.6415 5.15625 82.7979 6.3128 82.7979 7.73438V7.73438ZM62.1326 49.0906C62.1326 47.669 63.2892 46.5125 64.7108 46.5125C66.1324 46.5125 67.2889 47.669 67.2889 49.0906C67.2889 50.5122 66.1324 51.6687 64.7108 51.6687C63.2892 51.6687 62.1326 50.5122 62.1326 49.0906ZM59.7157 57.6843C59.7157 57.2105 60.1013 56.825 60.5751 56.825H68.8466C69.3205 56.825 69.706 57.2105 69.706 57.6843V62.0876H59.7157V57.6843ZM71.7035 52.3916C72.1784 51.3898 72.4451 50.2709 72.4451 49.0904C72.4451 44.8257 68.9755 41.356 64.7108 41.356C60.446 41.356 56.9764 44.8257 56.9764 49.0904C56.9764 50.2709 57.2431 51.3898 57.718 52.3916C55.8386 53.4103 54.5595 55.4006 54.5595 57.6842V62.0874H46.624V36.2001H82.798V62.0876H74.8622V57.6843C74.8622 55.4006 73.583 53.4103 71.7035 52.3916V52.3916ZM20.7568 49.0906C20.7568 47.669 21.9134 46.5125 23.335 46.5125C24.7565 46.5125 25.9131 47.669 25.9131 49.0906C25.9131 50.5122 24.7565 51.6687 23.335 51.6687C21.9134 51.6687 20.7568 50.5122 20.7568 49.0906ZM18.3398 57.6843C18.3398 57.2105 18.7253 56.825 19.1991 56.825H27.4706C27.9445 56.825 28.33 57.2105 28.33 57.6843V62.0876H18.3398V57.6843ZM30.3277 52.3916C30.8026 51.3898 31.0693 50.2709 31.0693 49.0904C31.0693 44.8257 27.5997 41.356 23.335 41.356C19.0702 41.356 15.6006 44.8257 15.6006 49.0904C15.6006 50.2709 15.8673 51.3898 16.3422 52.3916C14.4628 53.4103 13.1835 55.4006 13.1835 57.6842V62.0874H5.20215V36.2H13.1835H33.4862H41.4678V62.0874H33.4862V57.6842C33.4862 55.4006 32.207 53.4103 30.3277 52.3916V52.3916ZM20.7568 18.0469C20.7568 16.6253 21.9134 15.4688 23.335 15.4688C24.7565 15.4688 25.9131 16.6253 25.9131 18.0469C25.9131 19.4685 24.7565 20.625 23.335 20.625C21.9134 20.625 20.7568 19.4685 20.7568 18.0469ZM18.3398 26.6406C18.3398 26.1668 18.7253 25.7812 19.1991 25.7812H27.4706C27.9445 25.7812 28.33 26.1668 28.33 26.6406V31.0437H18.3398V26.6406ZM62.1326 18.0469C62.1326 16.6253 63.2892 15.4688 64.7108 15.4688C66.1324 15.4688 67.2889 16.6253 67.2889 18.0469C67.2889 19.4685 66.1324 20.625 64.7108 20.625C63.2892 20.625 62.1326 19.4685 62.1326 18.0469ZM59.7157 26.6406C59.7157 26.1668 60.1013 25.7812 60.5751 25.7812H68.8466C69.3205 25.7812 69.706 26.1668 69.706 26.6406V31.0437H59.7157V26.6406ZM7.78027 5.15625H41.4678V31.0437H33.4862V26.6406C33.4862 24.3569 32.207 22.3666 30.3277 21.3481C30.8026 20.3462 31.0693 19.2273 31.0693 18.0469C31.0693 13.7821 27.5997 10.3125 23.335 10.3125C19.0702 10.3125 15.6006 13.7821 15.6006 18.0469C15.6006 19.2273 15.8673 20.3462 16.3422 21.3481C14.4628 22.3666 13.1835 24.3569 13.1835 26.6406V31.0437H5.20215V7.73438C5.20215 6.3128 6.3587 5.15625 7.78027 5.15625ZM48.7438 82.8438H39.2563V77.5562H48.7438V82.8438ZM80.2197 72.3999H7.78027C6.3587 72.3999 5.20215 71.2434 5.20215 69.8218V67.2437H82.798V69.8218C82.7979 71.2434 81.6415 72.3999 80.2197 72.3999Z" fill="#EDB41E"/>
</svg>
